<svg width="32" height="28" viewBox="0 0 32 28" fill="none" xmlns="http://www.w3.org/2000/svg">
<g filter="url(#filter0_d_0_8511)">
<path fill-rule="evenodd" clip-rule="evenodd" d="M12.0188 13.1946H12.0178C11.6416 13.1955 11.3359 13.491 11.3359 13.8542C11.3359 14.2179 11.6427 14.5139 12.0195 14.5139H24.4154C24.793 14.5139 25.099 14.8092 25.099 15.1736C25.099 15.538 24.793 15.8333 24.4154 15.8333H23.25H13.25H12.0195C10.8888 15.8333 9.96876 14.9455 9.96876 13.8542C9.96876 13.0421 10.4784 12.343 11.2049 12.0382L8.73686 1.31944H5.18359C4.80602 1.31944 4.5 1.02412 4.5 0.659722C4.5 0.295329 4.80602 0 5.18359 0H9.28516C9.6056 0 9.88295 0.214753 9.95256 0.516611L10.4412 2.63889H27.1498C27.3643 2.63889 27.5663 2.73613 27.6956 2.9014C27.8246 3.06668 27.8659 3.28074 27.807 3.47986L25.0726 12.716C24.9888 12.9991 24.7205 13.1944 24.4154 13.1944H12.0215L12.0188 13.1946ZM13.25 15.8333C14.3987 15.8333 15.3333 16.7679 15.3333 17.9167C15.3333 19.0654 14.3987 20 13.25 20C12.1013 20 11.1667 19.0654 11.1667 17.9167C11.1667 16.7679 12.1013 15.8333 13.25 15.8333ZM23.25 15.8333C24.3987 15.8333 25.3333 16.7679 25.3333 17.9167C25.3333 19.0654 24.3987 20 23.25 20C22.1013 20 21.1667 19.0654 21.1667 17.9167C21.1667 16.7679 22.1013 15.8333 23.25 15.8333ZM23.8997 11.875L26.2435 3.95833H10.7449L12.5678 11.875H23.8997ZM13.9444 17.9167C13.9444 17.5338 13.6328 17.2222 13.25 17.2222C12.8672 17.2222 12.5556 17.5338 12.5556 17.9167C12.5556 18.2995 12.8672 18.6111 13.25 18.6111C13.6328 18.6111 13.9444 18.2995 13.9444 17.9167ZM23.25 17.2222C23.6328 17.2222 23.9444 17.5338 23.9444 17.9167C23.9444 18.2995 23.6328 18.6111 23.25 18.6111C22.8672 18.6111 22.5556 18.2995 22.5556 17.9167C22.5556 17.5338 22.8672 17.2222 23.25 17.2222Z" fill="white"/>
</g>
<defs>
<filter id="filter0_d_0_8511" x="0.5" y="0" width="31.3334" height="28" filterUnits="userSpaceOnUse" color-interpolation-filters="sRGB">
<feFlood flood-opacity="0" result="BackgroundImageFix"/>
<feColorMatrix in="SourceAlpha" type="matrix" values="0 0 0 0 0 0 0 0 0 0 0 0 0 0 0 0 0 0 127 0" result="hardAlpha"/>
<feOffset dy="4"/>
<feGaussianBlur stdDeviation="2"/>
<feComposite in2="hardAlpha" operator="out"/>
<feColorMatrix type="matrix" values="0 0 0 0 0 0 0 0 0 0 0 0 0 0 0 0 0 0 0.25 0"/>
<feBlend mode="normal" in2="BackgroundImageFix" result="effect1_dropShadow_0_8511"/>
<feBlend mode="normal" in="SourceGraphic" in2="effect1_dropShadow_0_8511" result="shape"/>
</filter>
</defs>
</svg>
